<svg width="1600" height="640" viewBox="0 0 1600 640" fill="none" xmlns="http://www.w3.org/2000/svg" role="img" aria-labelledby="title desc">
  <title id="title">Fabricacion de piezas de trenes de aterrizaje</title>
  <desc id="desc">Ilustracion de una celda CNC con brazo robotico fabricando componentes del tren de aterrizaje de una aeronave.</desc>

  <defs>
    <linearGradient id="bg" x1="0" y1="0" x2="0" y2="1">
      <stop offset="0" stop-color="#eaf3fa"/>
      <stop offset="1" stop-color="#d6e3ee"/>
    </linearGradient>
    <linearGradient id="steel" x1="0" y1="0" x2="1" y2="1">
      <stop offset="0" stop-color="#f8fbff"/>
      <stop offset="1" stop-color="#9aa9b6"/>
    </linearGradient>
    <linearGradient id="machine" x1="0" y1="0" x2="0" y2="1">
      <stop offset="0" stop-color="#f6fbff"/>
      <stop offset="1" stop-color="#cfdce7"/>
    </linearGradient>
    <linearGradient id="warning" x1="0" y1="0" x2="1" y2="0">
      <stop offset="0" stop-color="#ffd64d"/>
      <stop offset="1" stop-color="#f3b400"/>
    </linearGradient>
  </defs>

  <rect width="1600" height="640" fill="url(#bg)"/>

  <rect x="0" y="510" width="1600" height="130" fill="#b8c9d7"/>
  <rect x="0" y="526" width="1600" height="5" fill="#8ea3b3" opacity="0.55"/>

  <rect x="80" y="90" width="1440" height="22" rx="7" fill="url(#warning)"/>
  <rect x="130" y="110" width="18" height="318" rx="6" fill="#d8e3ed"/>
  <rect x="1450" y="110" width="18" height="318" rx="6" fill="#d8e3ed"/>

  <rect x="330" y="160" width="940" height="320" rx="16" fill="url(#machine)" stroke="#95a7b6" stroke-width="4"/>
  <rect x="360" y="198" width="320" height="220" rx="10" fill="#e9f1f8" stroke="#a4b7c7"/>
  <rect x="710" y="198" width="530" height="220" rx="10" fill="#eef5fb" stroke="#a4b7c7"/>

  <rect x="295" y="230" width="42" height="210" rx="7" fill="#3a4d60"/>
  <rect x="1270" y="230" width="42" height="210" rx="7" fill="#3a4d60"/>

  <rect x="550" y="422" width="510" height="28" rx="10" fill="#7d90a2"/>
  <rect x="520" y="450" width="570" height="36" rx="10" fill="#5a6f82"/>

  <path d="M790 250L870 220L930 250L900 300L830 305L790 250Z" fill="#31475a"/>
  <rect x="905" y="288" width="120" height="28" rx="10" fill="url(#steel)"/>
  <circle cx="1035" cy="302" r="22" fill="#5d7285"/>
  <circle cx="1035" cy="302" r="9" fill="#2c3f50"/>

  <rect x="860" y="134" width="70" height="95" rx="8" fill="#465d71"/>
  <rect x="882" y="225" width="25" height="85" rx="7" fill="#60798f"/>
  <path d="M894 310L940 336L915 360L865 334L894 310Z" fill="#324a5e"/>
  <rect x="932" y="332" width="38" height="14" rx="6" fill="#243847"/>

  <g fill="#ffb347">
    <circle cx="970" cy="346" r="2.5"/>
    <circle cx="978" cy="351" r="2.3"/>
    <circle cx="986" cy="355" r="2.1"/>
    <circle cx="996" cy="360" r="2.8"/>
    <circle cx="1006" cy="366" r="2.2"/>
    <circle cx="1014" cy="372" r="2.4"/>
    <circle cx="1024" cy="379" r="2.1"/>
    <circle cx="1036" cy="386" r="2.6"/>
  </g>

  <g>
    <rect x="175" y="390" width="220" height="28" rx="10" fill="url(#steel)"/>
    <circle cx="205" cy="442" r="38" fill="#8ca2b3"/>
    <circle cx="205" cy="442" r="14" fill="#4c6274"/>
    <rect x="980" y="390" width="260" height="30" rx="12" fill="url(#steel)"/>
    <circle cx="1230" cy="445" r="42" fill="#91a8b9"/>
    <circle cx="1230" cy="445" r="15" fill="#4b6173"/>
  </g>

  <g opacity="0.9">
    <circle cx="1120" cy="410" r="6" fill="#2e4f66"/>
    <rect x="1110" y="416" width="18" height="34" rx="5" fill="#47657b"/>
    <rect x="1098" y="450" width="13" height="40" rx="4" fill="#3f5f75"/>
    <rect x="1127" y="450" width="13" height="40" rx="4" fill="#3f5f75"/>
  </g>

  <rect x="108" y="138" width="340" height="44" rx="12" fill="#113149"/>
  <text x="132" y="168" font-family="Arial, sans-serif" font-size="26" font-weight="700" fill="#ffffff">AIRSPACE MANUFACTURING CELL</text>
</svg>
